<svg xmlns="http://www.w3.org/2000/svg" viewBox="0 0 1200 900" width="1200" height="900" role="img" aria-label="bromo">
  <defs>
    <linearGradient id="sky" x1="0" y1="0" x2="0" y2="1">
      <stop offset="0%" stop-color="#DCE3D5"/>
      <stop offset="100%" stop-color="#E8E0D2"/>
    </linearGradient>
    <filter id="grain">
      <feTurbulence type="fractalNoise" baseFrequency="0.9" numOctaves="3" stitchTiles="stitch"/>
      <feColorMatrix type="saturate" values="0"/>
    </filter>
  </defs>
  <rect width="1200" height="900" fill="url(#sky)"/>
  <circle cx="864" cy="234" r="81" fill="#F1E7D4" opacity="0.75"/>
  <path d="M 0 900 L 0 450 Q 75 398.3033950617284 150 387.2287037037037 Q 225 391.8748456790123 300 390.47845679012346 Q 375 356.31666666666666 450 495.5800617283951 Q 525 435.85108024691357 600 354.4446296296296 Q 675 386.0336419753086 750 487.24993827160495 Q 825 409.75324074074075 900 364.04043209876545 Q 975 277.2320987654321 1050 499.1272222222222 Q 1125 294.02577160493826 1200 479.8880864197531 L 1200 900 Z" fill="#A3AE94" opacity="0.92"/>
    <path d="M 0 900 L 0 567 Q 75 447.71875 150 524.8877777777777 Q 225 449.0423611111111 300 524.0133333333333 Q 375 488.53263888888887 450 560.0722222222222 Q 525 462.1895833333333 600 501.8644444444444 Q 675 560.0131944444445 750 554.19 Q 825 438.00347222222223 900 552.2488888888889 Q 975 550.1604166666666 1050 595.2411111111111 Q 1125 456.4840277777778 1200 556.7666666666667 L 1200 900 Z" fill="#7C8B6F" opacity="0.9"/>
    <path d="M 0 900 L 0 684 Q 75 657.3492283950617 150 658.4374691358024 Q 225 663.4990740740741 300 655.0091975308642 Q 375 621.5563271604938 450 644.2179629629629 Q 525 655.9654320987654 600 643.485987654321 Q 675 587.8375 750 640.3688271604938 Q 825 634.9503086419753 900 715.7553703703704 Q 975 641.7483024691358 1050 696.6678395061729 Q 1125 611.3425925925926 1200 649.0617901234568 L 1200 900 Z" fill="#4C5A48" opacity="0.88"/>
    <path d="M 0 900 L 0 801 Q 75 739.1948302469136 150 787.8777777777777 Q 225 747.2449845679013 300 783.466049382716 Q 375 755.3877314814815 450 820.0172839506173 Q 525 729.1786265432099 600 779.3092592592593 Q 675 757.5065586419753 750 817.7864197530864 Q 825 802.59375 900 782.5598765432098 Q 975 749.9957561728395 1050 803.4074074074074 Q 1125 758.6014660493827 1200 756.7734567901234 L 1200 900 Z" fill="#2C3A2E" opacity="0.8600000000000001"/>
  <rect width="1200" height="900" filter="url(#grain)" opacity="0.06"/>
</svg>
